<?xml version="1.0" standalone="no"?><!-- Generator: Gravit.io --><svg xmlns="http://www.w3.org/2000/svg" xmlns:xlink="http://www.w3.org/1999/xlink" style="isolation:isolate" viewBox="0 0 438.333 263" width="438.333px" height="263px"><defs><clipPath id="_clipPath_T5xB3NIw4BxXrTwgJjESAC30zcaeawoT"><rect width="438.333" height="263"/></clipPath></defs><g clip-path="url(#_clipPath_T5xB3NIw4BxXrTwgJjESAC30zcaeawoT)"><g style="isolation:isolate"><g><rect x="333.333" y="0" width="27" height="27" transform="matrix(1,0,0,1,0,0)" fill="rgb(86,180,233)"/><rect x="294.333" y="39" width="27" height="27" transform="matrix(1,0,0,1,0,0)" fill="rgb(230,159,0)"/><rect x="333.333" y="39" width="27" height="27" transform="matrix(1,0,0,1,0,0)" fill="rgb(86,180,233)"/><rect x="411.333" y="39" width="27" height="27" transform="matrix(1,0,0,1,0,0)" fill="rgb(240,228,66)"/><rect x="294.333" y="78" width="27" height="27" transform="matrix(1,0,0,1,0,0)" fill="rgb(230,159,0)"/><rect x="333.333" y="78" width="27" height="27" transform="matrix(1,0,0,1,0,0)" fill="rgb(86,180,233)"/><rect x="372.333" y="78" width="27" height="27" transform="matrix(1,0,0,1,0,0)" fill="rgb(0,158,115)"/><rect x="411.333" y="78" width="27" height="27" transform="matrix(1,0,0,1,0,0)" fill="rgb(240,228,66)"/></g><g><rect x="39" y="0" width="27" height="27" transform="matrix(1,0,0,1,0,0)" fill="rgb(86,180,233)"/><rect x="0" y="39" width="27" height="27" transform="matrix(1,0,0,1,0,0)" fill="rgb(230,159,0)"/><rect x="39" y="39" width="27" height="27" transform="matrix(1,0,0,1,0,0)" fill="rgb(86,180,233)"/><rect x="0" y="78" width="27" height="27" transform="matrix(1,0,0,1,0,0)" fill="rgb(230,159,0)"/><rect x="39" y="78" width="27" height="27" transform="matrix(1,0,0,1,0,0)" fill="rgb(86,180,233)"/><rect x="78" y="78" width="27" height="27" transform="matrix(1,0,0,1,0,0)" fill="rgb(0,158,115)"/></g><g><rect x="0" y="236" width="27" height="27" transform="matrix(1,0,0,1,0,0)" fill="rgb(230,159,0)"/><rect x="39" y="236" width="27" height="27" transform="matrix(1,0,0,1,0,0)" fill="rgb(86,180,233)"/><rect x="78" y="236" width="27" height="27" transform="matrix(1,0,0,1,0,0)" fill="rgb(0,158,115)"/></g><g><rect x="294.333" y="236" width="27" height="27" transform="matrix(1,0,0,1,0,0)" fill="rgb(230,159,0)"/><rect x="333.333" y="236" width="27" height="27" transform="matrix(1,0,0,1,0,0)" fill="rgb(86,180,233)"/><rect x="372.333" y="236" width="27" height="27" transform="matrix(1,0,0,1,0,0)" fill="rgb(0,158,115)"/><rect x="411.333" y="236" width="27" height="27" transform="matrix(1,0,0,1,0,0)" fill="rgb(240,228,66)"/></g></g><g style="isolation:isolate"><line x1="52.833" y1="114.917" x2="52.833" y2="224.25" vector-effect="non-scaling-stroke" stroke-width="2" stroke="rgb(0,0,0)" stroke-linejoin="miter" stroke-linecap="square" stroke-miterlimit="3"/><path d=" M 45.762 212.062 L 52.833 226.204 L 59.904 212.062 M 45.762 204.991 L 52.833 219.133 L 59.904 204.991" fill="none" stroke="rgb(0,0,0)" stroke-width="2"/><line x1="366.333" y1="114.917" x2="366.333" y2="224.25" vector-effect="non-scaling-stroke" stroke-width="2" stroke="rgb(0,0,0)" stroke-linejoin="miter" stroke-linecap="square" stroke-miterlimit="3"/><path d=" M 359.262 212.062 L 366.333 226.204 L 373.404 212.062 M 359.262 204.991 L 366.333 219.133 L 373.404 204.991" fill="none" stroke="rgb(0,0,0)" stroke-width="2"/><g><line x1="152.471" y1="92.5" x2="261.804" y2="92.5" vector-effect="non-scaling-stroke" stroke-width="2" stroke="rgb(0,0,0)" stroke-linejoin="miter" stroke-linecap="square" stroke-miterlimit="3"/><path d=" M 250.955 99.571 L 265.097 92.5 L 250.955 85.429" fill="none" stroke="rgb(0,0,0)" stroke-width="2"/><clipPath id="_clipPath_Hjc4U9fvdkvlMAyGeFkQWLLjg8QrmuFd"><rect x="139.081" y="68.578" width="12.977" height="27.25" transform="matrix(1,0,0,1,0,0)" fill="rgb(255,255,255)"/></clipPath><g clip-path="url(#_clipPath_Hjc4U9fvdkvlMAyGeFkQWLLjg8QrmuFd)"><circle vector-effect="non-scaling-stroke" cx="152.0570711951868" cy="82.375" r="10.125" fill="none" stroke-width="2" stroke="rgb(0,0,0)" stroke-linejoin="miter" stroke-linecap="square" stroke-miterlimit="3"/></g></g><g><line x1="152.471" y1="248.172" x2="261.804" y2="248.172" vector-effect="non-scaling-stroke" stroke-width="2" stroke="rgb(0,0,0)" stroke-linejoin="miter" stroke-linecap="square" stroke-miterlimit="3"/><path d=" M 250.955 255.243 L 265.097 248.172 L 250.955 241.101" fill="none" stroke="rgb(0,0,0)" stroke-width="2"/><clipPath id="_clipPath_P2fyJfEKOPnz3sIUXHh1NBzrgGWb3YWS"><rect x="139.081" y="224.25" width="12.977" height="27.25" transform="matrix(1,0,0,1,0,0)" fill="rgb(255,255,255)"/></clipPath><g clip-path="url(#_clipPath_P2fyJfEKOPnz3sIUXHh1NBzrgGWb3YWS)"><circle vector-effect="non-scaling-stroke" cx="152.05707119518678" cy="238.046875" r="10.125" fill="none" stroke-width="2" stroke="rgb(0,0,0)" stroke-linejoin="miter" stroke-linecap="square" stroke-miterlimit="3"/></g></g></g></g></svg>